<svg xmlns="http://www.w3.org/2000/svg" enable-background="new 0 0 25 25" viewBox="0 0 25 25"><path fill="#de002a" d="m15.494 24.661-2.81-7.5c-.095-.254-.083-.537.034-.782s.329-.432.586-.518c1.014-.338 1.696-1.287 1.696-2.361 0-1.378-1.122-2.5-2.5-2.5s-2.5 1.122-2.5 2.5c0 1.074.682 2.023 1.696 2.361.257.086.469.273.586.518s.129.527.034.782l-2.81 7.5-1.873-.702 2.488-6.641c-1.299-.804-2.121-2.236-2.121-3.818 0-2.481 2.019-4.5 4.5-4.5s4.5 2.019 4.5 4.5c0 1.582-.822 3.014-2.122 3.818l2.488 6.641z"/><path fill="#583689" d="m5.975 23.163c-3.742-2.294-5.975-6.28-5.975-10.663 0-6.893 5.607-12.5 12.5-12.5s12.5 5.607 12.5 12.5c0 4.367-2.221 8.346-5.942 10.643l-1.051-1.702c3.127-1.93 4.993-5.273 4.993-8.941 0-5.79-4.71-10.5-10.5-10.5s-10.5 4.71-10.5 10.5c0 3.682 1.877 7.031 5.021 8.958z"/></svg>